<svg width="55" height="61" viewBox="0 0 55 61" fill="none" xmlns="http://www.w3.org/2000/svg">
<path fill-rule="evenodd" clip-rule="evenodd" d="M42.0559 20.251C40.3569 20.251 38.7378 20.6219 37.2613 21.291C38.6477 19.1018 39.4613 16.4496 39.4613 13.5894C39.4613 6.08424 33.8715 0 26.9764 0C20.0814 0 14.4918 6.08424 14.4918 13.5894C14.4918 16.3126 15.2305 18.8464 16.4975 20.9725C15.2378 20.5072 13.8889 20.251 12.4846 20.251C5.58938 20.251 0 26.3352 0 33.8404C0 41.3455 5.58938 47.4298 12.4846 47.4298C14.0418 47.4298 15.5314 47.1167 16.9061 46.5496C16.9059 46.5528 22.7164 44.8449 26.5359 37.2777V41.834C26.5359 41.834 24.5776 56.1962 10.7711 57.7683H8.56773V60.0065H46.1686V57.7683H43.9654C30.159 56.1962 28.2004 41.834 28.2004 41.834V37.5844C28.9118 39.2896 32.8452 47.6273 41.685 47.4203C41.8085 47.4234 41.9315 47.4298 42.0559 47.4298C48.9512 47.4298 54.5406 41.3455 54.5406 33.8404C54.5406 26.3352 48.9512 20.251 42.0559 20.251Z" fill="#1A1919"/>
</svg>
