<svg width="54" height="63" viewBox="0 0 54 63" fill="none" xmlns="http://www.w3.org/2000/svg">
<path fill-rule="evenodd" clip-rule="evenodd" d="M39.0916 49.077C49.3803 49.2099 55.7097 41.6389 52.2282 33.6699C48.7468 25.7005 45.276 23.9075 39.8109 18.1298C34.3431 12.3522 26.3924 2.35749 26.43 2.62314e-07C26.4703 2.35749 18.847 12.3522 13.3792 18.1298C7.91411 23.9075 4.44607 25.7005 0.961925 33.6698C-2.51953 41.6389 3.81259 49.2099 14.0986 49.077C21.1608 48.9858 24.339 44.3261 25.6355 41.4129L25.6355 45.2257C25.6355 45.2257 23.3807 58.9787 7.46852 60.4843L4.93192 60.4843L4.93192 62.6274L48.2609 62.6274L48.2609 60.4843L45.7216 60.4843C29.8121 58.9787 27.5547 45.2257 27.5547 45.2257L27.5547 41.9135C29.082 44.8299 32.4212 48.9909 39.0916 49.077Z" fill="#1A1919"/>
</svg>
